<svg xmlns="http://www.w3.org/2000/svg" viewBox="0 0 100 100">
  <path fill="#FF3E00" d="M85.1 13.4c-11.6-14.3-32.5-16.1-46.4-4.1L19.4 24.8c-6.1 5.2-9.8 12.4-10.3 20.1-.4 6.2 1.2 12.4 4.5 17.8-2.9 4.5-4.5 9.7-4.5 15.1-.4 7.7 2.5 15.2 8.1 20.7 11.6 14.3 32.5 16.1 46.4 4.1l19.3-15.5c6.1-5.2 9.8-12.4 10.3-20.1.4-6.2-1.2-12.4-4.5-17.8 2.9-4.5 4.5-9.7 4.5-15.1.4-7.7-2.5-15.2-8.1-20.7z"/>
  <path fill="#FFFFFF" d="M45.8 79.8c-7.5 1.7-15.4-1.5-19.8-8.1-2.5-3.6-3.5-8-2.9-12.3l.8-4.7 2.4 3.6c2.7 4.2 6.5 7.4 11 9.4l1 .4-.1 1c-.2 2.4.8 4.8 2.6 6.4 2.4 2.2 5.8 2.9 8.9 1.9 1-.3 1.9-.8 2.7-1.5l19.3-15.4c1.7-1.4 2.7-3.4 2.9-5.6.2-2.2-.5-4.4-1.9-6.1-2.4-2.7-6.2-3.6-9.6-2.2l-7.4 3c-1 .4-2 .7-3 .9-7.5 1.7-15.4-1.5-19.8-8.1-2.5-3.6-3.5-8-2.9-12.3.6-4.3 2.9-8.2 6.4-10.8l19.3-15.5c1.7-1.4 3.6-2.4 5.7-3 7.5-1.7 15.4 1.5 19.8 8.1 2.5 3.6 3.5 8 2.9 12.3l-.8 4.7-2.4-3.6c-2.7-4.2-6.5-7.4-11-9.4l-1-.4.1-1c.2-2.4-.8-4.8-2.6-6.4-2.4-2.2-5.8-2.9-8.9-1.9-1 .3-1.9.8-2.7 1.5L34.8 48.2c-1.7 1.4-2.7 3.4-2.9 5.6-.2 2.2.5 4.4 1.9 6.1 2.4 2.7 6.2 3.6 9.6 2.2l7.4-3c1-.4 2-.7 3-.9 7.5-1.7 15.4 1.5 19.8 8.1 2.5 3.6 3.5 8 2.9 12.3-.6 4.3-2.9 8.2-6.4 10.8L50.8 105c-1.7 1.4-3.6 2.4-5.7 3l.7-28.2z"/>
</svg>
